<svg width="19" height="20" viewBox="0 0 19 20" fill="none" xmlns="http://www.w3.org/2000/svg">
<path d="M17.5002 8.50002H9.66683V11.5834H14.2502C14.1668 12.3334 13.6668 13.5 12.5835 14.25C11.9168 14.75 10.9168 15.0834 9.66683 15.0834C7.50016 15.0834 5.5835 13.6667 4.91683 11.5834C4.75016 11.0834 4.66683 10.5 4.66683 9.91669C4.66683 9.33335 4.75016 8.75002 4.91683 8.25002C5.00016 8.08335 5.00016 7.91669 5.0835 7.83335C5.8335 6.08335 7.5835 4.83335 9.66683 4.83335C11.2502 4.83335 12.2502 5.50002 12.9168 6.08335L15.2502 3.75002C13.8335 2.50002 11.9168 1.66669 9.66683 1.66669C6.41683 1.66669 3.5835 3.50002 2.25016 6.25002C1.66683 7.41669 1.3335 8.66669 1.3335 10C1.3335 11.3334 1.66683 12.5834 2.25016 13.75C3.5835 16.5 6.41683 18.3334 9.66683 18.3334C11.9168 18.3334 13.8335 17.5834 15.1668 16.3334C16.7502 14.9167 17.6668 12.75 17.6668 10.1667C17.6668 9.50002 17.5835 9.00002 17.5002 8.50002Z" stroke="#114CA2" stroke-width="1.5" stroke-miterlimit="10" stroke-linecap="round" stroke-linejoin="round"/>
</svg>
